<svg width="25" height="24" viewBox="0 0 25 24" fill="none" xmlns="http://www.w3.org/2000/svg">
<g clipPath="url(#clip0_3910_8269)">
<path d="M12.5896 13.5C13.4336 13.5 14.1178 12.8284 14.1178 12C14.1178 11.1716 13.4336 10.5 12.5896 10.5C11.7457 10.5 11.0615 11.1716 11.0615 12C11.0615 12.8284 11.7457 13.5 12.5896 13.5Z" fill="#07A53D"/>
<path d="M15.9407 18.12L14.6265 16.78L14.5552 16.71L13.2614 15.44C13.0561 15.4753 12.8483 15.4954 12.6399 15.5C12.1674 15.5066 11.6983 15.421 11.2598 15.2481C10.8213 15.0751 10.4222 14.8184 10.0857 14.4927C9.74916 14.1671 9.48196 13.779 9.29959 13.351C9.11722 12.9231 9.02334 12.4639 9.02338 12C9.02811 11.7954 9.04854 11.5915 9.08451 11.39L7.04701 9.39L5.45776 7.87C4.30792 8.93347 3.32288 10.1564 2.53395 11.5C2.44453 11.652 2.39746 11.8245 2.39746 12C2.39746 12.1755 2.44453 12.348 2.53395 12.5C3.17576 13.59 6.60895 19 12.6094 19H12.8641C13.9924 18.9671 15.1061 18.7404 16.1546 18.33L15.9407 18.12ZM9.11507 5.76L11.9676 8.56C12.1729 8.5247 12.3806 8.50464 12.589 8.5C13.5347 8.5 14.4416 8.86875 15.1103 9.52513C15.779 10.1815 16.1546 11.0717 16.1546 12C16.1499 12.2046 16.1295 12.4085 16.0935 12.61L18.8238 15.29L19.6795 16.13C20.8438 15.0693 21.8427 13.8462 22.6441 12.5C22.7335 12.348 22.7806 12.1755 22.7806 12C22.7806 11.8245 22.7335 11.652 22.6441 11.5C21.9921 10.39 18.4061 4.82 12.3139 5C11.1856 5.03286 10.0719 5.25962 9.02338 5.67L9.11507 5.76ZM21.4623 19.29L20.1379 18L18.1004 16L8.40195 6.47L6.90438 5L5.16232 3.29C5.06734 3.19676 4.95457 3.1228 4.83046 3.07234C4.70636 3.02188 4.57334 2.99591 4.43901 2.99591C4.30468 2.99591 4.17166 3.02188 4.04756 3.07234C3.92345 3.1228 3.81068 3.19676 3.7157 3.29C3.52386 3.47831 3.41609 3.7337 3.41609 4C3.41609 4.2663 3.52386 4.5217 3.7157 4.71L5.9977 7L7.78051 8.7L15.2276 16L15.2989 16.07L16.664 17.41L17.2651 18L20.0157 20.71C20.1104 20.8037 20.2231 20.8781 20.3472 20.9289C20.4714 20.9797 20.6045 21.0058 20.739 21.0058C20.8735 21.0058 21.0067 20.9797 21.1308 20.9289C21.2549 20.8781 21.3676 20.8037 21.4623 20.71C21.5578 20.617 21.6336 20.5064 21.6853 20.3846C21.737 20.2627 21.7637 20.132 21.7637 20C21.7637 19.868 21.737 19.7373 21.6853 19.6154C21.6336 19.4936 21.5578 19.383 21.4623 19.29Z" fill="#07A53D"/>
</g>
<defs>
<clipPath id="clip0_3910_8269">
<rect width="24.45" height="24" fill="white" transform="translate(0.364258)"/>
</clipPath>
</defs>
</svg>
