<svg width="25" height="24" viewBox="0 0 25 24" fill="none" xmlns="http://www.w3.org/2000/svg">
<g clip-path="url(#clip0_3910_9291)">
<path d="M12.5896 13.5C13.4336 13.5 14.1178 12.8284 14.1178 12C14.1178 11.1716 13.4336 10.5 12.5896 10.5C11.7457 10.5 11.0615 11.1716 11.0615 12C11.0615 12.8284 11.7457 13.5 12.5896 13.5Z" fill="#07A53D"/>
<path d="M22.6441 11.5C21.9921 10.39 18.4061 4.81999 12.3139 4.99999C6.68026 5.13999 3.42026 9.99999 2.53395 11.5C2.44453 11.652 2.39746 11.8245 2.39746 12C2.39746 12.1755 2.44453 12.348 2.53395 12.5C3.17576 13.59 6.60895 19 12.6094 19H12.8641C18.4978 18.86 21.7679 14 22.6441 12.5C22.7335 12.348 22.7806 12.1755 22.7806 12C22.7806 11.8245 22.7335 11.652 22.6441 11.5ZM12.589 15.5C11.8838 15.5 11.1944 15.2947 10.6081 14.9101C10.0217 14.5256 9.56467 13.9789 9.2948 13.3394C9.02493 12.6998 8.95432 11.9961 9.0919 11.3172C9.22948 10.6382 9.56907 10.0146 10.0677 9.52512C10.5664 9.03564 11.2017 8.70229 11.8934 8.56725C12.5851 8.4322 13.302 8.50151 13.9535 8.76642C14.605 9.03132 15.1619 9.47993 15.5537 10.0555C15.9455 10.6311 16.1546 11.3078 16.1546 12C16.1546 12.9283 15.779 13.8185 15.1103 14.4749C14.4416 15.1312 13.5347 15.5 12.589 15.5Z" fill="#07A53D"/>
</g>
<defs>
<clipPath id="clip0_3910_9291">
<rect width="24.45" height="24" fill="white" transform="translate(0.364258)"/>
</clipPath>
</defs>
</svg>
