<svg width="20" height="20" viewBox="0 0 20 20" fill="none" xmlns="http://www.w3.org/2000/svg">
<g clip-path="url(#clip0_3910_9265)">
<path d="M19.8052 10.1871C19.8052 9.36767 19.7384 8.76973 19.5939 8.14966H10.1963V11.848H15.7125C15.6013 12.7671 15.0008 14.1512 13.6662 15.0813L13.6475 15.2051L16.6188 17.4969L16.8247 17.5174C18.7153 15.7789 19.8052 13.221 19.8052 10.1871Z" fill="#4285F4"/>
<path d="M10.1956 19.9313C12.8981 19.9313 15.1668 19.0454 16.824 17.5174L13.6655 15.0813C12.8202 15.6682 11.6858 16.0779 10.1956 16.0779C7.54869 16.0779 5.30218 14.3395 4.50135 11.9366L4.38397 11.9466L1.29431 14.3273L1.25391 14.4391C2.89986 17.6945 6.2808 19.9313 10.1956 19.9313Z" fill="#34A853"/>
<path d="M4.50161 11.9366C4.2903 11.3166 4.16801 10.6521 4.16801 9.96565C4.16801 9.27908 4.2903 8.61473 4.49049 7.99466L4.48489 7.8626L1.35651 5.44366L1.25416 5.49214C0.575779 6.84305 0.186523 8.36008 0.186523 9.96565C0.186523 11.5712 0.575779 13.0882 1.25416 14.4391L4.50161 11.9366Z" fill="#FBBC05"/>
<path d="M10.1956 3.85336C12.0751 3.85336 13.3429 4.66168 14.0658 5.33718L16.8907 2.59107C15.1558 0.985496 12.8981 0 10.1956 0C6.2808 0 2.89987 2.23672 1.25391 5.49214L4.49024 7.99466C5.30218 5.59183 7.54869 3.85336 10.1956 3.85336Z" fill="#EB4335"/>
</g>
<defs>
<clipPath id="clip0_3910_9265">
<rect width="19.6296" height="20" fill="white" transform="translate(0.185547)"/>
</clipPath>
</defs>
</svg>
