<svg width="20" height="24" viewBox="0 0 20 24" fill="none" xmlns="http://www.w3.org/2000/svg">
<path d="M13.53 3.82775C13.9837 3.30492 14.3295 2.69763 14.5478 2.04075C14.7661 1.38387 14.8525 0.690347 14.802 0C13.4093 0.112417 12.1165 0.767416 11.2022 1.82388C10.7643 2.33022 10.4325 2.91926 10.2264 3.55614C10.0203 4.19301 9.9441 4.86477 10.0023 5.53163C10.6816 5.53729 11.3531 5.38656 11.9649 5.09109C12.5766 4.79563 13.1121 4.36336 13.53 3.82775ZM16.5538 12.7552C16.5619 11.8357 16.8041 10.9335 17.2576 10.1336C17.711 9.33368 18.3608 8.66253 19.1457 8.18346C18.6504 7.46979 17.9956 6.88134 17.2333 6.46478C16.471 6.04822 15.6221 5.815 14.754 5.78362C12.8821 5.59163 11.1542 6.87554 10.1583 6.87554C9.16233 6.87554 7.75842 5.80761 6.19852 5.83161C5.17875 5.86521 4.18508 6.16253 3.31445 6.69458C2.44382 7.22663 1.72595 7.97525 1.23085 8.86741C-0.881005 12.5392 0.690891 17.9988 2.80275 20.9626C3.76269 22.4145 4.96261 24.0584 6.5465 23.9984C8.1304 23.9384 8.64636 23.0145 10.4822 23.0145C12.3181 23.0145 12.8821 23.9984 14.442 23.9624C16.0019 23.9264 17.1058 22.4745 18.1137 21.0226C18.8277 19.9685 19.3855 18.8167 19.7696 17.6028C18.8187 17.1973 18.0073 16.522 17.4358 15.6605C16.8643 14.799 16.5577 13.789 16.5538 12.7552Z" fill="black"/>
</svg>
